<svg xmlns="http://www.w3.org/2000/svg" width="16" height="16" viewBox="0 0 16 16"><circle cx="8" cy="8" r="8" fill="#1d1d1b"/><path d="M5.82,5.39l0,0A2.26,2.26,0,0,1,7,5.11a2.32,2.32,0,0,1,.94.19,1.82,1.82,0,0,1,.75.59,1.43,1.43,0,0,1,.67-.58,2.29,2.29,0,0,1,1-.21,2.58,2.58,0,0,1,.73.11,2.14,2.14,0,0,1,.65.35,1.6,1.6,0,0,1,.46.59,1.91,1.91,0,0,1,.18.86s0,.17,0,.4,0,.51,0,.82v1c0,.35,0,.64,0,.9a1.54,1.54,0,0,0,0,.39.44.44,0,0,0,.18.32s0,0,0,.07,0,.08-.08.08H10.15s-.07,0-.06-.07,0-.07,0-.08a.29.29,0,0,0,.11-.13c0-.07,0-.14.07-.22a1.52,1.52,0,0,0,0-.21c0-.06,0-.11,0-.13V6.55a1.07,1.07,0,0,0-.18-.7.58.58,0,0,0-.43-.2,1,1,0,0,0-.52.17,1,1,0,0,0-.38.4A2.06,2.06,0,0,1,9,7v3.1A1.61,1.61,0,0,0,9,10.5a.44.44,0,0,0,.18.32s0,0,0,.07,0,.08-.08.08H6.83s-.07,0-.07-.08,0-.07,0-.07a.23.23,0,0,0,.11-.14A1.72,1.72,0,0,0,7,10.47a.76.76,0,0,0,0-.21.78.78,0,0,0,0-.13V6.55a1.07,1.07,0,0,0-.18-.7.56.56,0,0,0-.42-.2.94.94,0,0,0-.39.1A1.28,1.28,0,0,0,5.67,6a.9.9,0,0,0,0,.18v3.92a.81.81,0,0,0,0,.19,1.8,1.8,0,0,0,.08.21l.11.19a.29.29,0,0,0,.13.12.16.16,0,0,1,0,.08S6,11,6,11H3.49c-.05,0-.07,0-.07-.07a.16.16,0,0,1,0-.08.21.21,0,0,0,.11-.13,1.72,1.72,0,0,0,.07-.21,1.49,1.49,0,0,0,0-.21,1,1,0,0,0,0-.14l0-3.65a.78.78,0,0,0-.05-.3A.5.5,0,0,0,3.55,6L3.46,6a.1.1,0,0,1,0-.09c0-.07.05-.11.15-.13L4,5.65c.19,0,.41-.1.67-.18a4.25,4.25,0,0,0,.86-.4.22.22,0,0,1,.13,0,.16.16,0,0,1,.12,0,.19.19,0,0,1,.07.12A.36.36,0,0,1,5.82,5.39Z" fill="#fff"/></svg>