<svg xmlns="http://www.w3.org/2000/svg" width="166" height="70" viewBox="0 0 166 70"><path d="M22.74,8.39l-.09.09a8.85,8.85,0,0,1,4.59-1.17,9.28,9.28,0,0,1,3.66.74,6.57,6.57,0,0,1,2.9,2.31,5.61,5.61,0,0,1,2.63-2.29,9.07,9.07,0,0,1,3.8-.81,9.32,9.32,0,0,1,2.85.45,7.66,7.66,0,0,1,2.54,1.35,6.5,6.5,0,0,1,1.8,2.31,7.76,7.76,0,0,1,.68,3.35c0,.15,0,.68,0,1.58s0,2,0,3.19v3.84c0,1.34,0,2.5.05,3.49a7.81,7.81,0,0,0,.2,1.55A1.84,1.84,0,0,0,49,29.6c.06,0,.1.1.13.3s-.07.29-.31.29H39.65c-.18,0-.27-.09-.25-.27s.05-.29.11-.32a1,1,0,0,0,.43-.51,8.3,8.3,0,0,0,.27-.84,4.31,4.31,0,0,0,.13-.83q0-.37,0-.51v-14a4.13,4.13,0,0,0-.7-2.72A2.17,2.17,0,0,0,38,9.42a3.73,3.73,0,0,0-2,.65,4.42,4.42,0,0,0-1.5,1.55,8.18,8.18,0,0,1,.58,3.1v12.1a6.82,6.82,0,0,0,.23,1.55A1.92,1.92,0,0,0,36,29.6c.06,0,.11.1.14.3s-.08.29-.31.29H26.65c-.17,0-.26-.1-.24-.29s.05-.3.11-.3a1,1,0,0,0,.43-.54c.1-.27.19-.54.27-.83a4,4,0,0,0,.13-.81c0-.25,0-.42,0-.51v-14a4.14,4.14,0,0,0-.69-2.72A2.12,2.12,0,0,0,25,9.42a3.46,3.46,0,0,0-1.53.38,4.78,4.78,0,0,0-1.35,1,2.53,2.53,0,0,0-.09.7V26.82a3.23,3.23,0,0,0,.11.74,4.44,4.44,0,0,0,.32.83,5.74,5.74,0,0,0,.42.74,1.3,1.3,0,0,0,.5.47c.06,0,.1.14.13.32s-.07.27-.31.27H13.62c-.18,0-.26-.09-.25-.27s.05-.29.11-.32a.93.93,0,0,0,.43-.51,4.47,4.47,0,0,0,.25-.81,6.54,6.54,0,0,0,.11-.83c0-.27,0-.45,0-.54l.09-14.25a4.23,4.23,0,0,0-.2-1.17,2.1,2.1,0,0,0-.34-.61,2.26,2.26,0,0,0-.33-.31.39.39,0,0,1-.16-.34c0-.27.19-.44.58-.52L15.6,9.4a22.94,22.94,0,0,0,2.58-.68,16.22,16.22,0,0,0,3.4-1.59A.91.91,0,0,1,22.07,7a.71.71,0,0,1,.47.16.72.72,0,0,1,.27.47A1.53,1.53,0,0,1,22.74,8.39Z" fill=""/><path d="M68.87,30.41a8.58,8.58,0,0,1-1.76.23,3.72,3.72,0,0,1-2.67-.92A5.73,5.73,0,0,1,63,27.27a6.67,6.67,0,0,1-2.45,2.47,6.85,6.85,0,0,1-3.49.9,7.37,7.37,0,0,1-2.76-.52,6.21,6.21,0,0,1-2.23-1.51,6.82,6.82,0,0,1-1.46-2.36,8.76,8.76,0,0,1-.52-3.08,8.59,8.59,0,0,1,.52-3.05,7,7,0,0,1,1.46-2.34,6.34,6.34,0,0,1,2.23-1.51A7.36,7.36,0,0,1,57,15.76a6.46,6.46,0,0,1,5.35,2.51c.06-1.55.1-3,.11-4.27A6.8,6.8,0,0,0,62,11,4,4,0,0,0,61,9.58a1.83,1.83,0,0,0-1.11-.43,1.33,1.33,0,0,0-1.23.88,2.59,2.59,0,0,0,.11,2.18,1.28,1.28,0,0,1,0,1.1,2.53,2.53,0,0,1-.86.9,5.21,5.21,0,0,1-1.37.6,5.78,5.78,0,0,1-1.6.23,4.41,4.41,0,0,1-1.3-.2,3,3,0,0,1-1.08-.61,2,2,0,0,1-.6-1.08A3.48,3.48,0,0,1,52,11.53a4,4,0,0,1,1.1-1.84,7,7,0,0,1,2-1.35,12.45,12.45,0,0,1,2.67-.83,14.86,14.86,0,0,1,3-.29,15.65,15.65,0,0,1,2.66.22,10.94,10.94,0,0,1,2.42.7,7.79,7.79,0,0,1,2,1.19A5.16,5.16,0,0,1,69.23,11a9.8,9.8,0,0,1,1,2.87,19.73,19.73,0,0,1,.31,2.9,26.13,26.13,0,0,1,0,2.68c-.06.84-.09,1.57-.09,2.2a5.14,5.14,0,0,0,.18,1.51.67.67,0,0,0,.76.51c.3,0,.46-.06.47-.18s.09-.11.21,0a2.09,2.09,0,0,1,.54,1.4A5.67,5.67,0,0,1,72.35,27a5.42,5.42,0,0,1-1.19,2.07A4.48,4.48,0,0,1,68.87,30.41ZM57.63,23.17a6.81,6.81,0,0,0,.65,3.24,1.78,1.78,0,0,0,3.37,0,6.93,6.93,0,0,0,.65-3.24A6.77,6.77,0,0,0,61.65,20a1.79,1.79,0,0,0-3.37,0A6.65,6.65,0,0,0,57.63,23.17Z" fill=""/><path d="M83.74,3.4c-.18.56-.34,1.12-.49,1.66a8.07,8.07,0,0,0-.18,2.29v.41H87.7a.65.65,0,0,1,.61.38,1.78,1.78,0,0,1,.2.83,1.93,1.93,0,0,1-.2.85.66.66,0,0,1-.61.41H83.07v9.48a12.62,12.62,0,0,0,.09,2.66,5.76,5.76,0,0,0,.63,1.79,1.45,1.45,0,0,0,1.44.77,1.84,1.84,0,0,0,1.44-.68c.33-.42.64-.83.94-1.25a1.13,1.13,0,0,1,.9-.59.76.76,0,0,1,.49.18,1,1,0,0,1,.32.45,4.31,4.31,0,0,1,0,2,6.61,6.61,0,0,1-1.14,2.5,7.62,7.62,0,0,1-2.38,2.09,6.87,6.87,0,0,1-3.76.79,7.84,7.84,0,0,1-3.08-.61,5.44,5.44,0,0,1-2-1.46,6.11,6.11,0,0,1-1.1-2,11.32,11.32,0,0,1-.47-2.3,22.52,22.52,0,0,1-.09-2.31c0-.77,0-1.45,0-2.05l.09-9.48H74a.67.67,0,0,1-.61-.38,1.88,1.88,0,0,1-.2-.86,1.84,1.84,0,0,1,.2-.85A.65.65,0,0,1,74,7.76h1.39V7.67a3.88,3.88,0,0,0-.2-1.17,1.89,1.89,0,0,0-.34-.61,2.26,2.26,0,0,0-.33-.31.39.39,0,0,1-.16-.34c0-.27.19-.44.58-.52l1.64-.31a24.84,24.84,0,0,0,2.59-.68,15.88,15.88,0,0,0,3.42-1.59A.83.83,0,0,1,83.07,2a.93.93,0,0,1,.47.18.75.75,0,0,1,.27.45A1.46,1.46,0,0,1,83.74,3.4Z" fill=""/><path d="M91.48,19a13.7,13.7,0,0,1,.78-4.74,11.07,11.07,0,0,1,2.18-3.67,9.6,9.6,0,0,1,3.37-2.36,11.12,11.12,0,0,1,4.32-.83A11,11,0,0,1,106,8a8.08,8.08,0,0,1,2.77,1.62,7.06,7.06,0,0,1,1.66,2.24,6.2,6.2,0,0,1,.56,2.54,3.6,3.6,0,0,1-1.3,2.93,9.25,9.25,0,0,1-3.19,1.64,18.36,18.36,0,0,1-4,.69c-1.4.09-2.66.14-3.77.14a6.68,6.68,0,0,0,1.75,3.91,5.35,5.35,0,0,0,4,1.39,6.54,6.54,0,0,0,2.76-.58,4.32,4.32,0,0,0,1.91-1.57,1.11,1.11,0,0,1,1-.54.92.92,0,0,1,.61.2,1,1,0,0,1,.34.56,4.4,4.4,0,0,1-.34,1.8,8.53,8.53,0,0,1-1.46,2.54,9.09,9.09,0,0,1-2.77,2.22,8.52,8.52,0,0,1-4.29.9,11.72,11.72,0,0,1-4.32-.87,9.9,9.9,0,0,1-3.37-2.32,10.55,10.55,0,0,1-2.18-3.62A14,14,0,0,1,91.48,19Zm7-1.26c.63,0,1.28,0,1.94,0a5.89,5.89,0,0,0,1.82-.36,3.05,3.05,0,0,0,1.35-1,3,3,0,0,0,.51-1.84,16.19,16.19,0,0,0-.49-3.93q-.45-1.65-1.35-1.65a2,2,0,0,0-1.42.79,7.36,7.36,0,0,0-1.21,2,15.55,15.55,0,0,0-.83,2.81A16,16,0,0,0,98.53,17.69Z" fill=""/><path d="M12.67,54a13.7,13.7,0,0,1,.79-4.74,10.91,10.91,0,0,1,2.18-3.67A9.51,9.51,0,0,1,19,43.18a11.12,11.12,0,0,1,4.32-.83,11.13,11.13,0,0,1,3.84.61A8.18,8.18,0,0,1,30,44.58a6.87,6.87,0,0,1,1.69,2.24,5.27,5.27,0,0,1,.47,2.54,2.63,2.63,0,0,1-.88,2,2.78,2.78,0,0,1-1.82.65,3.51,3.51,0,0,1-2.11-.76,3.47,3.47,0,0,1-1.3-2.3A18,18,0,0,0,25,45.09c-.38-.81-.86-1.19-1.46-1.17a2.4,2.4,0,0,0-1.78.95,7.67,7.67,0,0,0-1.37,2.38,13.2,13.2,0,0,0-.74,3.19,13.8,13.8,0,0,0,0,3.46,10.41,10.41,0,0,0,.95,3.2,5.37,5.37,0,0,0,2,2.29,5.57,5.57,0,0,0,2.92.81,6.22,6.22,0,0,0,2.79-.65,4.8,4.8,0,0,0,1.93-1.64,1.11,1.11,0,0,1,1-.54.92.92,0,0,1,.61.2,1,1,0,0,1,.33.56,4.34,4.34,0,0,1-.33,1.8,8.75,8.75,0,0,1-1.46,2.54,9.21,9.21,0,0,1-2.77,2.22,8.52,8.52,0,0,1-4.29.9A11.72,11.72,0,0,1,19,64.72a9.8,9.8,0,0,1-3.37-2.32,10.39,10.39,0,0,1-2.18-3.62A14,14,0,0,1,12.67,54Z" fill=""/><path d="M43,47.52V59.34a4.75,4.75,0,0,0,.77,3.06,2.3,2.3,0,0,0,1.8.9,3,3,0,0,0,1.5-.41,4.11,4.11,0,0,0,1.28-1.07V47.61a4,4,0,0,0-.2-1.15,2.16,2.16,0,0,0-.34-.58,3,3,0,0,0-.31-.31.43.43,0,0,1-.14-.34c0-.27.2-.44.59-.52l1.66-.31a23.61,23.61,0,0,0,2.59-.68,16.17,16.17,0,0,0,3.39-1.59.83.83,0,0,1,.49-.12,1,1,0,0,1,.48.18.86.86,0,0,1,.27.45,1.53,1.53,0,0,1-.07.74c-.18.61-.34,1.2-.47,1.8a9.37,9.37,0,0,0-.16,2.34L56,61.59a3.54,3.54,0,0,0,.11.77c.08.3.17.6.29.92a4.83,4.83,0,0,0,.43.85,1.63,1.63,0,0,0,.47.52c.06,0,.11.13.14.31s-.06.27-.27.27H48.32q-.32,0-.27-.24a1,1,0,0,1,.14-.39,2.33,2.33,0,0,0,.13-.31,1.15,1.15,0,0,0,0-.36,10.19,10.19,0,0,1-2.59,1.24,9.9,9.9,0,0,1-3,.47A9.12,9.12,0,0,1,40,65.21a6.6,6.6,0,0,1-2.39-1.33,6.45,6.45,0,0,1-1.68-2.38A8.69,8.69,0,0,1,35.29,58V47.66a3.84,3.84,0,0,0-.21-1.17,1.89,1.89,0,0,0-.33-.61,2.27,2.27,0,0,0-.34-.31.39.39,0,0,1-.16-.34c0-.27.2-.44.59-.52l1.66-.31a22.94,22.94,0,0,0,2.58-.68,16,16,0,0,0,3.4-1.59A.83.83,0,0,1,43,42a.93.93,0,0,1,.47.18.75.75,0,0,1,.27.45,1.4,1.4,0,0,1-.06.74c-.18.61-.35,1.2-.5,1.78A8.8,8.8,0,0,0,43,47.52Z" fill=""/><path d="M59.69,54a13.7,13.7,0,0,1,.79-4.74,11.07,11.07,0,0,1,2.18-3.67A9.51,9.51,0,0,1,66,43.18a11.12,11.12,0,0,1,4.32-.83,11,11,0,0,1,3.82.61,7.94,7.94,0,0,1,2.76,1.62,7,7,0,0,1,1.67,2.24,6.2,6.2,0,0,1,.56,2.54,3.6,3.6,0,0,1-1.3,2.93,9.21,9.21,0,0,1-3.2,1.64,18.17,18.17,0,0,1-4,.69c-1.41.09-2.66.14-3.77.14a6.68,6.68,0,0,0,1.75,3.91,5.35,5.35,0,0,0,4,1.39,6.54,6.54,0,0,0,2.76-.58,4.32,4.32,0,0,0,1.91-1.57,1.11,1.11,0,0,1,1-.54.92.92,0,0,1,.61.2,1,1,0,0,1,.33.56,4.34,4.34,0,0,1-.33,1.8,8.53,8.53,0,0,1-1.46,2.54,9.09,9.09,0,0,1-2.77,2.22,8.52,8.52,0,0,1-4.29.9A11.72,11.72,0,0,1,66,64.72a9.8,9.8,0,0,1-3.37-2.32,10.55,10.55,0,0,1-2.18-3.62A14,14,0,0,1,59.69,54Zm7.06-1.26c.63,0,1.28,0,1.94,0a6,6,0,0,0,1.82-.36,3,3,0,0,0,1.34-1,2.92,2.92,0,0,0,.52-1.84,16.19,16.19,0,0,0-.49-3.93q-.45-1.65-1.35-1.65a2,2,0,0,0-1.42.79,7.36,7.36,0,0,0-1.21,2,14.78,14.78,0,0,0-.83,2.81A16,16,0,0,0,66.75,52.69Z" fill=""/><path d="M91.39,43.34l0,0v.09a6.51,6.51,0,0,1,2.09-.92,10.53,10.53,0,0,1,2.45-.29,9.43,9.43,0,0,1,2.83.43A7.15,7.15,0,0,1,101.23,44a6.66,6.66,0,0,1,1.8,2.33,7.87,7.87,0,0,1,.67,3.4v12a6.82,6.82,0,0,0,.23,1.55,1.93,1.93,0,0,0,.72,1.23c.06,0,.1.1.13.3s-.07.29-.31.29H95.3c-.18,0-.27-.1-.25-.29s0-.3.11-.3a1,1,0,0,0,.43-.54c.1-.27.19-.54.27-.83a4,4,0,0,0,.13-.78c0-.24,0-.41,0-.5v-14a4.13,4.13,0,0,0-.7-2.72,2.12,2.12,0,0,0-1.64-.79,3.46,3.46,0,0,0-1.53.38,4.78,4.78,0,0,0-1.35,1,2.86,2.86,0,0,0-.09.7V61.86a3.16,3.16,0,0,0,.11.74,5,5,0,0,0,.32.86,5.41,5.41,0,0,0,.43.76,1.28,1.28,0,0,0,.49.47c.06,0,.11.14.14.32s-.08.27-.32.27H82.26c-.18,0-.26-.09-.25-.27s.06-.29.12-.32a.92.92,0,0,0,.42-.51,4.47,4.47,0,0,0,.25-.81,5.12,5.12,0,0,0,.11-.83q0-.4,0-.54L83,47.61a3.88,3.88,0,0,0-.2-1.17,2.25,2.25,0,0,0-.33-.61,3,3,0,0,0-.34-.31.38.38,0,0,1-.16-.34c0-.27.2-.44.59-.51l1.66-.32a22.65,22.65,0,0,0,2.58-.67,16.6,16.6,0,0,0,3.4-1.6.92.92,0,0,1,.49-.13.75.75,0,0,1,.47.15.77.77,0,0,1,.27.48A1.47,1.47,0,0,1,91.39,43.34Z" fill=""/><path d="M106.8,54a13.7,13.7,0,0,1,.79-4.74,11.07,11.07,0,0,1,2.18-3.67,9.51,9.51,0,0,1,3.37-2.36A12,12,0,0,1,121.3,43a8.18,8.18,0,0,1,2.81,1.62,6.87,6.87,0,0,1,1.69,2.24,5.27,5.27,0,0,1,.47,2.54,2.63,2.63,0,0,1-.88,2,2.78,2.78,0,0,1-1.82.65,3.51,3.51,0,0,1-2.11-.76,3.47,3.47,0,0,1-1.3-2.3,18,18,0,0,0-1.06-3.82c-.38-.81-.86-1.19-1.46-1.17a2.4,2.4,0,0,0-1.78.95,7.67,7.67,0,0,0-1.37,2.38,13.2,13.2,0,0,0-.74,3.19,14.29,14.29,0,0,0,0,3.46,10.41,10.41,0,0,0,1,3.2,5.43,5.43,0,0,0,2,2.29,5.57,5.57,0,0,0,2.92.81,6.22,6.22,0,0,0,2.79-.65,4.8,4.8,0,0,0,1.93-1.64,1.11,1.11,0,0,1,1-.54.92.92,0,0,1,.61.2,1,1,0,0,1,.33.56,4.34,4.34,0,0,1-.33,1.8,8.53,8.53,0,0,1-1.46,2.54,9.21,9.21,0,0,1-2.77,2.22,8.52,8.52,0,0,1-4.29.9,11.72,11.72,0,0,1-4.32-.87,9.8,9.8,0,0,1-3.37-2.32,10.55,10.55,0,0,1-2.18-3.62A14,14,0,0,1,106.8,54Z" fill=""/><path d="M146.81,65.41a8.5,8.5,0,0,1-1.75.23,3.76,3.76,0,0,1-2.68-.92,5.83,5.83,0,0,1-1.46-2.45,6.6,6.6,0,0,1-2.45,2.47,6.79,6.79,0,0,1-3.48.9,7.46,7.46,0,0,1-2.77-.52A6.26,6.26,0,0,1,130,63.61a6.67,6.67,0,0,1-1.46-2.36,8.76,8.76,0,0,1-.52-3.08,8.59,8.59,0,0,1,.52-3.05A6.87,6.87,0,0,1,130,52.78a6.39,6.39,0,0,1,2.22-1.51,7.45,7.45,0,0,1,2.77-.51,6.46,6.46,0,0,1,5.35,2.51c.06-1.55.1-3,.11-4.27a6.8,6.8,0,0,0-.47-3,3.85,3.85,0,0,0-1.06-1.46,1.79,1.79,0,0,0-1.1-.43,1.32,1.32,0,0,0-1.23.88,2.59,2.59,0,0,0,.11,2.18,1.28,1.28,0,0,1,0,1.1,2.49,2.49,0,0,1-.85.9,5.21,5.21,0,0,1-1.37.6,5.84,5.84,0,0,1-1.6.23,4.36,4.36,0,0,1-1.3-.2,3,3,0,0,1-1.08-.61,2.06,2.06,0,0,1-.61-1.08,3.64,3.64,0,0,1,.07-1.62,4,4,0,0,1,1.1-1.84,7,7,0,0,1,2.05-1.35,12.45,12.45,0,0,1,2.67-.83,14.86,14.86,0,0,1,3-.29,15.54,15.54,0,0,1,2.65.22,10.88,10.88,0,0,1,2.43.7,7.79,7.79,0,0,1,2,1.19A5.13,5.13,0,0,1,147.17,46a9.55,9.55,0,0,1,1,2.87,19.73,19.73,0,0,1,.31,2.9,26.13,26.13,0,0,1,0,2.68c-.06.84-.09,1.57-.09,2.2a5.14,5.14,0,0,0,.18,1.51.67.67,0,0,0,.76.51c.3,0,.46-.06.47-.18s.08-.11.2,0a2.09,2.09,0,0,1,.54,1.4A5.65,5.65,0,0,1,150.3,62a5.56,5.56,0,0,1-1.19,2.07A4.47,4.47,0,0,1,146.81,65.41Zm-11.24-7.24a6.8,6.8,0,0,0,.66,3.24,1.9,1.9,0,0,0,1.68,1.21,1.93,1.93,0,0,0,1.69-1.21,6.93,6.93,0,0,0,.65-3.24A6.77,6.77,0,0,0,139.6,55a1.94,1.94,0,0,0-1.69-1.19A1.91,1.91,0,0,0,136.23,55,6.64,6.64,0,0,0,135.57,58.17Z" fill=""/></svg>